<svg width="28" height="28" viewBox="0 0 28 28" fill="none" xmlns="http://www.w3.org/2000/svg">
<path opacity="0.4" d="M19.8333 23.9166H8.16666C4.66666 23.9166 2.33333 22.1666 2.33333 18.0833V9.91659C2.33333 5.83325 4.66666 4.08325 8.16666 4.08325H19.8333C23.3333 4.08325 25.6667 5.83325 25.6667 9.91659V18.0833C25.6667 22.1666 23.3333 23.9166 19.8333 23.9166Z" fill="#2196F3"/>
<path d="M14 15.015C13.02 15.015 12.0283 14.7116 11.27 14.0933L7.61834 11.1766C7.245 10.8733 7.17501 10.325 7.47834 9.95163C7.78168 9.5783 8.33001 9.5083 8.70335 9.81164L12.355 12.7283C13.2417 13.44 14.7467 13.44 15.6333 12.7283L19.285 9.81164C19.6583 9.5083 20.2183 9.56663 20.51 9.95163C20.8133 10.325 20.755 10.885 20.37 11.1766L16.7183 14.0933C15.9717 14.7116 14.98 15.015 14 15.015Z" fill="#2196F3"/>
</svg>
