<svg width="30" height="31" viewBox="0 0 30 31" fill="none" xmlns="http://www.w3.org/2000/svg">
<path d="M15.0018 30.4687C14.6101 30.4696 14.2338 30.312 13.9578 30.0291L11.2467 27.2756H14.065C14.6478 27.2774 15.2067 27.0423 15.6173 26.6227L22.483 19.6471L22.5139 23.4609L16.0467 30.0291C15.7707 30.3112 15.3944 30.4696 15.0027 30.4687H15.0018ZM26.0402 26.446H20.7276L22.7204 24.422C23.1327 24.0068 23.3642 23.4409 23.3642 22.8507V12.9814L26.041 15.6566V26.4451L26.0402 26.446ZM14.5835 26.446H3.95832V21.0504L5.95119 23.0744C6.36262 23.4905 6.91891 23.7256 7.50006 23.7273H17.2176L14.5835 26.446ZM6.90005 22.8629L0.432863 16.2947C0.156861 16.0126 0.00171783 15.6313 3.53291e-06 15.2344C-0.000853616 14.8365 0.154289 14.4544 0.432863 14.1741L3.14403 11.4206V14.2829C3.14317 14.874 3.3746 15.4407 3.78689 15.8568L10.6552 22.8324L6.89919 22.8637L6.90005 22.8629ZM15.0001 22.2283C11.1978 22.2283 8.11549 19.0978 8.11549 15.2361C8.11549 11.3744 11.1978 8.24397 15.0001 8.24397C18.8024 8.24397 21.8847 11.3736 21.8847 15.2352C21.8804 19.0952 18.8007 22.223 15.0001 22.2274V22.2283ZM26.8562 19.0499V16.1876C26.8579 15.5965 26.6265 15.0289 26.2133 14.6111L19.345 7.63721L23.1002 7.60587L29.5674 14.1741C30.1442 14.7599 30.1442 15.7097 29.5674 16.2956L26.9248 18.9803L26.857 19.0491L26.8562 19.0499ZM6.63776 17.4882L3.96003 14.813V4.02014H9.27264L7.27891 6.04674C6.86748 6.46286 6.63691 7.02784 6.63776 7.61719V17.4865V17.4882ZM7.51806 10.8234L7.4872 7.01043L13.957 0.439624C14.2338 0.1567 14.6101 -0.000866947 15.0018 3.58806e-06C15.3927 0.000874124 15.7681 0.159312 16.0458 0.439624L18.7579 3.19313H15.9395C15.3575 3.19226 14.7995 3.4273 14.3898 3.84603L7.52234 10.8208H7.52148L7.51806 10.8234ZM26.0385 9.4192L24.0473 7.39607C23.6376 6.97822 23.0804 6.74317 22.5002 6.74404H12.7827L15.4167 4.02449H26.0419V9.42007H26.0385V9.4192Z" fill="#00194A"/>
</svg>
