<svg width="30" height="30" viewBox="0 0 30 30" fill="none" xmlns="http://www.w3.org/2000/svg">
<path d="M15.042 29.9998C13.0385 29.9998 11.0349 30.0019 9.03134 29.9934C8.91075 29.9934 8.76265 29.9322 8.67802 29.8477C7.45303 28.6462 6.23651 27.4342 5.01576 26.2306C3.47977 24.7186 1.94801 23.2025 0.397203 21.7054C0.130626 21.4478 0.0248428 21.1754 0.0248428 20.8185C0.0248428 17.8053 0.018493 14.792 0.0121459 11.7787C0.0100303 10.8834 -0.004777 9.99021 0.00157007 9.09489C0.00157007 8.96397 0.0565765 8.80138 0.145436 8.71058C1.40216 7.43517 2.67157 6.17455 3.93041 4.90336C5.24848 3.57305 6.5581 2.2343 7.87194 0.899763C7.88464 0.887093 7.89944 0.874423 7.91002 0.859642C8.35855 0.245165 8.9319 0.0403422 9.71471 0.0635698C11.6971 0.122695 13.6837 0.0825719 15.6683 0.0677907C17.3968 0.0551211 19.1232 0.0318919 20.8496 0.000217836C21.0442 -0.00400537 21.1754 0.053009 21.3066 0.18604C22.595 1.46567 23.8856 2.74319 25.1804 4.0186C26.6381 5.45449 28.0916 6.89249 29.562 8.31571C29.8519 8.59444 29.9788 8.87318 29.9767 9.28705C29.9598 12.6107 29.9703 15.9344 29.9767 19.258C29.9767 19.8049 30.0084 20.354 29.9978 20.9009C29.9936 21.055 29.928 21.2429 29.8222 21.3527C28.9231 22.2861 28.0133 23.2089 27.0993 24.1274C25.227 26.0131 23.3503 27.8945 21.4801 29.7823C21.3404 29.9216 21.2029 29.9829 20.9998 29.9829C19.0153 29.9744 17.0287 29.9787 15.0441 29.9787C15.042 29.985 15.042 29.9934 15.042 29.9998ZM4.45722 15.0665C4.46356 15.0665 4.46991 15.0665 4.47414 15.0665C4.47414 16.3905 4.48049 17.7145 4.4678 19.0384C4.46568 19.3087 4.55242 19.4966 4.74283 19.6825C6.67234 21.5766 8.59128 23.4791 10.5229 25.3711C10.6266 25.4725 10.8043 25.5464 10.9503 25.5527C11.4348 25.5717 11.9193 25.5506 12.4037 25.5506C14.5914 25.5464 16.7769 25.5401 18.9645 25.5485C19.2755 25.5506 19.504 25.4472 19.7114 25.2297C20.1874 24.725 20.6698 24.2266 21.1585 23.7325C22.5548 22.3262 23.9575 20.9262 25.3518 19.5157C25.447 19.4206 25.538 19.2686 25.5401 19.144C25.5549 17.7482 25.5612 16.3504 25.5528 14.9546C25.5464 13.5863 25.5253 12.2158 25.4957 10.8475C25.4935 10.7187 25.4174 10.5646 25.3264 10.4717C23.3905 8.53321 21.4441 6.60531 19.5082 4.66686C19.3665 4.52538 19.2247 4.46204 19.0301 4.46204C16.3495 4.46837 13.6689 4.47048 10.9862 4.46626C10.7387 4.46626 10.561 4.54228 10.3875 4.71965C8.47914 6.66022 6.56656 8.59444 4.64974 10.5266C4.51011 10.668 4.45087 10.8116 4.45298 11.0101C4.45933 12.3637 4.45722 13.7151 4.45722 15.0665Z" fill="#31A026"/>
<path d="M14.3544 11.5148C13.9799 11.9033 13.6245 12.2771 13.2648 12.6466C12.5497 13.3772 11.8368 14.11 11.1132 14.8321C10.9587 14.9884 10.9736 15.0982 11.1195 15.2439C12.4482 16.5721 13.7768 17.9024 15.0991 19.2391C16.0364 20.1851 16.9673 21.1416 17.9046 22.0897C18.0188 22.2059 18.0315 22.2755 17.9088 22.398C16.9948 23.3166 16.0851 24.2393 15.1838 25.1706C15.0293 25.3289 14.9447 25.3205 14.7924 25.1684C13.4637 23.8255 12.1245 22.4909 10.7937 21.1522C9.35928 19.7078 7.93119 18.2614 6.49886 16.8149C5.9784 16.2891 5.46217 15.7612 4.93537 15.2418C4.78727 15.0961 4.74707 14.9863 4.91209 14.8131C5.93609 13.7468 6.94951 12.6699 7.97138 11.6014C8.03697 11.5317 8.15756 11.4768 8.25065 11.4747C10.2542 11.4662 12.2557 11.4641 14.2592 11.4641C14.2761 11.4599 14.291 11.4768 14.3544 11.5148Z" fill="#31A026"/>
<path d="M25.3751 15.0264C24.4928 15.9407 23.5873 16.7959 22.7855 17.7377C22.265 18.3501 21.7043 18.5443 20.9215 18.5148C19.3517 18.4556 17.7755 18.4958 16.2036 18.4979C16.0703 18.4979 15.937 18.5127 15.7275 18.5232C16.9038 17.3217 18.0294 16.1688 19.1824 14.9926C18.791 14.5956 18.4102 14.205 18.0252 13.8186C16.0914 11.8674 14.1577 9.91844 12.2197 7.97154C12.0885 7.83851 12.0631 7.77305 12.2091 7.62735C13.1019 6.72569 13.9821 5.81137 14.8664 4.90338C15.114 4.64788 15.1203 4.64787 15.3721 4.90127C16.5865 6.126 17.7945 7.35495 19.009 8.57968C20.327 9.90788 21.6515 11.2297 22.9674 12.5601C23.7608 13.3646 24.5457 14.1775 25.3751 15.0264Z" fill="#31A026"/>
</svg>
